<?xml version="1.0" standalone="no"?>
<!DOCTYPE svg PUBLIC "-//W3C//DTD SVG 20010904//EN"
 "http://www.w3.org/TR/2001/REC-SVG-20010904/DTD/svg10.dtd">
<svg version="1.0" xmlns="http://www.w3.org/2000/svg"
 width="1024.000000pt" height="1024.000000pt" viewBox="0 0 1024.000000 1024.000000"
 preserveAspectRatio="xMidYMid meet">

<g transform="translate(0.000000,1024.000000) scale(0.100000,-0.100000)"
fill="#ff0000" stroke="none">
<path d="M3910 8561 c-46 -10 -78 -27 -118 -64 -66 -63 -62 72 -62 -2097 0
-1949 0 -1967 -20 -1985 -18 -16 -27 -17 -92 -7 -193 29 -345 22 -523 -23
-509 -129 -880 -539 -953 -1052 -13 -97 -14 -131 -4 -222 28 -251 100 -415
253 -576 229 -241 580 -352 944 -300 567 81 1018 522 1138 1115 34 164 37 269
37 1206 0 855 1 938 17 964 9 16 27 33 40 39 17 8 237 11 706 11 l682 0 105
-25 c396 -96 656 -341 755 -710 23 -84 30 -265 15 -366 -35 -239 -155 -461
-327 -604 -122 -101 -324 -183 -528 -214 -148 -23 -342 -31 -739 -31 -246 0
-426 -4 -447 -10 -42 -12 -54 -35 -64 -120 -15 -127 -48 -304 -81 -430 -49
-184 -48 -178 -34 -195 11 -13 88 -15 574 -15 566 0 744 7 936 36 625 93 1076
414 1335 949 179 370 227 746 140 1111 -84 353 -308 680 -589 859 -64 41 -294
155 -312 155 -6 0 -17 7 -24 14 -10 12 -1 20 52 47 225 113 425 318 532 544
94 197 121 331 121 590 0 173 -3 214 -23 304 -110 491 -430 842 -912 999 -190
62 -330 87 -581 102 -183 11 -1894 12 -1949 1z m1993 -804 c247 -50 364 -105
488 -227 148 -146 209 -304 196 -505 -21 -305 -213 -565 -477 -645 -179 -55
-158 -54 -859 -57 -455 -3 -663 -1 -681 7 -14 6 -34 24 -44 41 -17 28 -18 75
-19 662 -2 570 0 635 14 662 22 39 50 64 85 75 16 5 291 8 624 6 494 -3 608
-6 673 -19z"/>
</g>
</svg>
